HIERARCHY
ROOT Hips
{
	OFFSET -3.958830 18.904000 13.208200
	CHANNELS 6 Xposition Yposition Zposition Zrotation Yrotation Xrotation 
	JOINT LHipJoint
	{
		OFFSET 0.000000 0.000000 0.000000
		CHANNELS 3 Zrotation Yrotation Xrotation
		JOINT LeftUpLeg
		{
			OFFSET 1.800000 -1.400000 0.085000
			CHANNELS 3 Zrotation Yrotation Xrotation
			JOINT LeftLeg
			{
				OFFSET 2.215000 -6.000000 0.000000
				CHANNELS 3 Zrotation Yrotation Xrotation
				JOINT LeftFoot
				{
					OFFSET 2.500000 -6.900000 0.000000
					CHANNELS 3 Zrotation Yrotation Xrotation
					JOINT LeftToeBase
					{
						OFFSET 0.200000 -0.500000 1.950000
						CHANNELS 3 Zrotation Yrotation Xrotation
						End Site
						{
							OFFSET 0.000000 0.000000 0.000000
						}
					}
				}
			}
		}
	}
	JOINT RHipJoint
	{
		OFFSET 0.000000 0.000000 0.000000
		CHANNELS 3 Zrotation Yrotation Xrotation
		JOINT RightUpLeg
		{
			OFFSET -1.800000 -1.400000 0.085000
			CHANNELS 3 Zrotation Yrotation Xrotation
			JOINT RightLeg
			{
				OFFSET -2.215000 -6.000000 0.000000
				CHANNELS 3 Zrotation Yrotation Xrotation
				JOINT RightFoot
				{
					OFFSET -2.500000 -6.900000 0.000000
					CHANNELS 3 Zrotation Yrotation Xrotation
					JOINT RightToeBase
					{
						OFFSET -0.200000 -0.500000 1.950000
						CHANNELS 3 Zrotation Yrotation Xrotation
						End Site
						{
							OFFSET 0.000000 0.000000 0.000000
						}
					}
				}
			}
		}
	}
	JOINT LowerBack
	{
		OFFSET 0.000000 0.000000 0.000000
		CHANNELS 3 Zrotation Yrotation Xrotation
		JOINT Spine
		{
			OFFSET -0.087000 1.940000 -0.288900
			CHANNELS 3 Zrotation Yrotation Xrotation
			JOINT Spine1
			{
				OFFSET 0.000000 1.950000 0.060000
				CHANNELS 3 Zrotation Yrotation Xrotation
				JOINT Neck
				{
					OFFSET 0.000000 0.000000 0.000000
					CHANNELS 3 Zrotation Yrotation Xrotation
					JOINT Neck1
					{
						OFFSET 0.000000 1.600000 0.340000
						CHANNELS 3 Zrotation Yrotation Xrotation
						JOINT Head
						{
							OFFSET 0.000000 1.667000 -0.240000
							CHANNELS 3 Zrotation Yrotation Xrotation
							End Site
							{
								OFFSET 0.000000 0.000000 0.000000
							}
						}
					}
				}
				JOINT LeftShoulder
				{
					OFFSET 0.000000 0.000000 0.000000
					CHANNELS 3 Zrotation Yrotation Xrotation
					JOINT LeftArm
					{
						OFFSET 2.700000 1.550000 -0.730000
						CHANNELS 3 Zrotation Yrotation Xrotation
						JOINT LeftForeArm
						{
							OFFSET 5.450000 0.000000 0.000000
							CHANNELS 3 Zrotation Yrotation Xrotation
							JOINT LeftHand
							{
								OFFSET 3.450000 0.000000 0.000000
								CHANNELS 3 Zrotation Yrotation Xrotation
								JOINT LeftHandIndex1
								{
									OFFSET 0.750000 0.000000 0.000000
									CHANNELS 3 Zrotation Yrotation Xrotation
									End Site
									{
										OFFSET 0.000000 0.000000 0.000000
									}
								}
							}
						}
					}
				}
				JOINT RightShoulder
				{
					OFFSET 0.000000 0.000000 0.000000
					CHANNELS 3 Zrotation Yrotation Xrotation
					JOINT RightArm
					{
						OFFSET -2.700000 1.550000 -0.730000
						CHANNELS 3 Zrotation Yrotation Xrotation
						JOINT RightForeArm
						{
							OFFSET -5.450000 0.000000 0.000000
							CHANNELS 3 Zrotation Yrotation Xrotation
							JOINT RightHand
							{
								OFFSET -3.450000 0.000000 0.000000
								CHANNELS 3 Zrotation Yrotation Xrotation
								JOINT RightHandIndex1
								{
									OFFSET -0.750000 0.000000 0.000000
									CHANNELS 3 Zrotation Yrotation Xrotation
									End Site
									{
										OFFSET 0.000000 0.000000 0.000000
									}
								}
							}
						}
					}
				}
			}
		}
	}
}
MOTION
Frames: 10
Frame Time: 0.016667
-0.188540 18.007410 -1.134430 -17.965028 -5.252788 3.599868 -14.722992 11.039345 1.534112 13.766637 -1.523207 -15.557043 -7.610800 5.958975 12.313136 -0.406185 3.836432 3.272998 0.548730 0.427030 0.279000 19.238813 -8.207665 6.718629 -17.528055 17.733271 -62.303298 31.448367 -36.456686 69.457168 -3.207828 -15.336448 -0.271787 0.214120 0.188740 0.177520 -5.663012 0.149400 -8.716891 27.913383 -9.535488 17.702756 -15.764629 -3.654598 8.696311 4.458314 -2.227588 -6.716319 -4.393222 1.917388 34.898151 1.325260 -1.196580 -13.544540 -15.423366 0.402255 1.064532 -42.788489 -0.081539 -7.315864 -47.073751 -35.762180 11.663706 -3.481764 3.377840 0.413820 0.014210 0.097110 0.317890 6.074520 -1.014334 3.838665 47.663544 4.479132 -8.339020 54.538933 72.185366 30.024424 2.186539 -1.969290 -0.056120 0.245970 -0.175770 -0.019510 
-0.188020 17.970490 -1.161810 -18.566037 -5.987766 3.423011 -14.719656 11.007510 1.457246 13.934934 -1.427407 -15.067063 -7.140590 5.838050 12.171586 -0.390763 3.766258 3.278604 0.590650 0.479020 0.295450 19.255893 -8.116195 6.867835 -18.718581 18.099265 -63.953465 33.005965 -38.794990 70.842662 -3.402801 -15.883317 -0.390277 0.226510 0.149120 0.191940 -5.701355 0.157672 -8.765252 28.705098 -10.020705 18.824963 -16.055913 -3.668805 8.614840 4.298174 -2.567003 -6.849269 -5.003392 2.594945 35.196864 2.433640 -1.094400 -14.769080 -15.657389 -0.166612 1.279856 -41.200393 0.317120 -7.325264 -49.697299 -36.141487 12.597599 -3.432488 3.437453 0.428610 -0.023250 0.133530 0.322700 6.609160 -0.235957 3.826648 46.509993 4.722024 -8.597810 52.433951 73.443600 29.472133 2.187154 -1.975682 -0.019500 0.220690 -0.195740 -0.010590 
-0.188530 17.880400 -1.212520 -19.803384 -7.668223 2.980334 -14.738361 10.984726 1.342246 14.527775 -1.197568 -13.691952 -6.711009 5.788753 11.873461 -0.369061 3.767086 3.261723 0.632170 0.523850 0.322360 19.257175 -7.896343 7.145746 -21.014844 18.794232 -67.283436 36.502193 -43.596298 72.879534 -3.751133 -16.836168 -0.567816 0.230800 0.087740 0.200730 -5.697564 0.040199 -8.878831 30.006072 -11.031572 21.554255 -16.204940 -3.660384 8.240793 4.130905 -3.414057 -7.299701 -6.606196 3.385540 35.308585 3.165210 -1.052900 -17.225150 -15.952123 -1.194773 1.734278 -38.855319 1.437046 -7.555893 -54.202291 -37.371557 14.471404 -3.355776 3.493023 0.475630 -0.084240 0.186900 0.319700 7.187016 1.505811 4.047222 43.852683 4.843535 -9.210843 49.508432 76.672957 29.427745 2.181645 -1.956562 0.010380 0.201910 -0.213510 -0.013270 
-0.178570 17.762220 -1.276590 -21.127216 -10.008530 2.699203 -14.754189 10.928849 1.248263 15.191279 -0.956888 -12.651432 -6.769025 6.015901 12.249450 -0.412590 3.913223 3.198896 0.650040 0.522470 0.363730 19.261265 -7.717715 7.394974 -23.142650 19.735216 -70.895638 39.022387 -48.372906 75.551839 -4.080910 -17.774511 -0.736172 0.243310 0.045640 0.179170 -5.723367 0.047119 -8.974082 31.508870 -12.046272 24.600850 -16.911318 -3.432473 7.768424 4.128981 -4.232034 -7.457647 -8.038567 4.310390 35.174971 3.920580 -0.843690 -20.630590 -16.351942 -1.845765 1.877169 -36.344787 2.168971 -7.551527 -58.538271 -38.437858 16.378883 -3.308898 3.465561 0.566160 -0.144340 0.220510 0.289350 7.543599 2.826958 4.064704 41.610022 5.240646 -10.146746 43.194295 78.940614 26.528330 2.100486 -1.924992 -0.024770 0.241150 -0.197200 -0.052720 
-0.176320 17.630410 -1.332870 -22.177676 -13.157793 2.685212 -14.792509 10.983543 1.210102 15.567586 -0.677593 -11.739834 -6.815871 6.251009 12.573954 -0.388368 4.035212 3.158332 0.639970 0.502460 0.371990 19.216548 -7.589252 7.525991 -23.675934 21.791649 -73.646385 37.973371 -51.608404 80.570195 -4.398180 -18.908505 -0.925862 0.230160 0.029650 0.168760 -5.663534 -0.094078 -9.053476 31.764545 -12.478682 27.853512 -16.884954 -3.059573 6.778309 4.124705 -4.860280 -7.774163 -9.173218 4.964783 34.762138 3.973560 -0.665620 -21.505300 -17.649099 -3.058687 2.325911 -33.920826 3.663568 -7.873065 -61.892865 -39.728103 18.103503 -3.284118 3.477571 0.587410 -0.166060 0.226300 0.273490 8.765679 4.827652 4.107104 38.414917 5.265139 -11.402937 35.359861 80.745973 21.851255 2.036553 -1.912984 -0.033380 0.244020 -0.190260 -0.063560 
-0.185360 17.506130 -1.407460 -22.316443 -15.520222 0.910306 -14.877279 11.274671 1.170819 15.478989 -0.247035 -10.596271 -6.619265 6.822152 14.575615 -0.385498 4.314931 3.088103 0.604730 0.443200 0.390560 19.089101 -7.440552 7.594028 -24.121803 22.994352 -74.169719 38.104098 -55.761046 84.787189 -4.697990 -19.864776 -1.046533 0.212770 0.026870 0.111370 -5.389433 -0.686057 -9.134199 29.547363 -12.764239 33.756259 -15.360264 -3.219403 5.009385 3.955641 -5.514698 -8.088113 -10.576508 5.533284 34.662242 4.156120 -0.640890 -23.534790 -18.934248 -4.441883 2.650180 -31.858814 4.590305 -8.250050 -63.694344 -40.762907 19.134327 -3.256648 3.381844 0.660030 -0.204670 0.230370 0.252550 10.376518 7.118206 4.102523 35.260422 5.085481 -13.105644 26.118405 81.733057 15.348572 1.974819 -1.796297 -0.104770 0.317100 -0.175420 -0.097100 
-0.186030 17.394940 -1.457320 -21.692414 -17.706215 -1.234737 -14.960583 11.648087 1.137493 14.583188 0.181285 -10.068282 -6.001686 7.459115 17.794671 -0.268242 4.543622 3.019303 0.610930 0.465920 0.400070 18.941583 -7.372371 7.563177 -23.482378 24.104046 -72.547102 37.181384 -59.197608 89.374398 -4.982678 -20.724280 -1.138079 0.193280 0.003490 0.097620 -5.078235 -1.332724 -9.155088 26.586762 -12.693717 39.305428 -14.026120 -3.630933 2.892269 3.887523 -6.225300 -8.437695 -12.169976 6.105867 34.802674 4.344130 -0.756990 -24.604010 -20.579459 -5.854488 3.024435 -30.197936 5.712482 -8.827068 -63.332699 -41.319842 19.094603 -3.198608 3.372115 0.658710 -0.240710 0.266430 0.268590 12.168557 9.585307 4.225955 33.150425 5.056119 -14.581354 17.748489 80.764669 8.838154 1.970637 -1.704461 -0.077040 0.324050 -0.211200 -0.072070 
-0.187930 17.288130 -1.471550 -21.885975 -20.762507 -1.289922 -14.982621 11.862198 1.194355 14.387585 0.397211 -11.701334 -5.826989 8.381408 21.751949 -0.185516 4.929464 2.863183 0.601310 0.459660 0.386710 18.850425 -7.493340 7.339086 -19.999726 26.487792 -69.184891 33.717870 -59.126745 93.868833 -5.141931 -21.428335 -1.240404 0.184470 0.008010 0.083810 -4.961731 -1.532012 -9.111438 25.910890 -12.214126 41.351288 -14.012814 -3.134448 0.767036 3.876617 -6.809234 -8.366629 -13.441927 6.607333 34.918772 4.363220 -0.849980 -23.455550 -23.953110 -6.832982 2.846772 -27.789279 6.386848 -8.850615 -60.497767 -41.262993 18.065281 -3.167712 3.387569 0.635330 -0.240440 0.254360 0.276610 15.420350 11.405245 4.412489 31.523412 4.084190 -15.624791 11.010106 79.183894 3.801450 1.965680 -1.637925 -0.071830 0.317700 -0.220780 -0.059560 
-0.196340 17.198260 -1.453300 -21.883355 -23.427907 -1.643347 -14.980850 12.065881 1.242186 13.687432 0.511090 -13.334446 -4.573261 9.074076 26.419787 -0.126479 5.387087 2.663801 0.574630 0.404000 0.378260 18.784812 -7.676219 7.105080 -15.671339 28.187867 -64.256200 29.787508 -58.394828 98.249259 -5.240777 -21.907497 -1.331773 0.147520 -0.003020 0.087150 -4.906647 -1.625031 -9.063636 25.625494 -11.645598 42.201060 -14.608038 -2.403733 -1.015107 4.085466 -7.146551 -8.399441 -14.746750 7.023146 37.129736 4.871250 -1.214070 -22.634220 -26.577944 -7.292703 2.170410 -27.150469 5.415134 -8.644601 -54.166770 -38.954831 14.686870 -3.144218 3.363069 0.655360 -0.256500 0.246890 0.247910 17.457172 12.376984 4.985070 32.837888 2.488718 -16.977511 5.456793 76.677959 -0.215391 1.950666 -1.545269 -0.072120 0.298400 -0.188460 -0.074060 
-0.201210 17.109800 -1.396930 -21.070152 -23.781952 -1.917055 -14.959345 12.145580 1.371096 12.165918 0.018029 -15.688366 -3.029991 9.473508 31.677064 -0.072375 5.931389 2.417913 0.532020 0.327420 0.380580 18.755672 -7.821309 6.895395 -12.614569 26.810432 -57.634678 26.927510 -57.936502 100.650261 -5.219122 -21.870685 -1.355976 0.095040 -0.038550 0.105480 -4.883018 -1.714180 -9.057732 25.961011 -11.374431 40.350689 -15.705586 -2.105200 -1.855025 4.833539 -6.732893 -8.605913 -15.075545 6.998656 41.455237 3.537400 -1.164960 -21.410960 -28.559125 -7.648629 1.443385 -27.983391 3.473658 -8.283226 -46.370380 -35.880554 10.981885 -3.141552 3.303369 0.692240 -0.265940 0.254240 0.194050 17.785200 12.350434 5.757977 37.338302 0.758367 -18.608719 -0.299735 72.720901 -3.933143 1.914782 -1.417082 -0.071270 0.262120 -0.137340 -0.112080 
